<svg width="40" height="40" viewBox="0 0 40 40" fill="none" xmlns="http://www.w3.org/2000/svg">
<path d="M0 2C0 0.895431 0.895431 0 2 0H38C39.1046 0 40 0.895431 40 2V38C40 39.1046 39.1046 40 38 40H2C0.895431 40 0 39.1046 0 38V2Z" fill="#F3F4F6"/>
<path d="M20 11.6667V28.3334" stroke="#364153" stroke-width="1.66667" stroke-linecap="round" stroke-linejoin="round"/>
<path d="M24.1667 14.1667H17.9167C17.1431 14.1667 16.4013 14.474 15.8543 15.021C15.3073 15.568 15 16.3099 15 17.0834C15 17.857 15.3073 18.5988 15.8543 19.1458C16.4013 19.6928 17.1431 20.0001 17.9167 20.0001H22.0833C22.8569 20.0001 23.5987 20.3074 24.1457 20.8544C24.6927 21.4013 25 22.1432 25 22.9167C25 23.6903 24.6927 24.4322 24.1457 24.9791C23.5987 25.5261 22.8569 25.8334 22.0833 25.8334H15" stroke="#364153" stroke-width="1.66667" stroke-linecap="round" stroke-linejoin="round"/>
</svg>
