<svg width="48" height="48" viewBox="0 0 48 48" fill="none" xmlns="http://www.w3.org/2000/svg">
<path d="M0 2C0 0.895431 0.895431 0 2 0H46C47.1046 0 48 0.895431 48 2V46C48 47.1046 47.1046 48 46 48H2C0.895431 48 0 47.1046 0 46V2Z" fill="#F3F4F6"/>
<path d="M33 28H29C28.4477 28 28 28.4477 28 29V33C28 33.5523 28.4477 34 29 34H33C33.5523 34 34 33.5523 34 33V29C34 28.4477 33.5523 28 33 28Z" stroke="#364153" stroke-width="2" stroke-linecap="round" stroke-linejoin="round"/>
<path d="M19 28H15C14.4477 28 14 28.4477 14 29V33C14 33.5523 14.4477 34 15 34H19C19.5523 34 20 33.5523 20 33V29C20 28.4477 19.5523 28 19 28Z" stroke="#364153" stroke-width="2" stroke-linecap="round" stroke-linejoin="round"/>
<path d="M26 14H22C21.4477 14 21 14.4477 21 15V19C21 19.5523 21.4477 20 22 20H26C26.5523 20 27 19.5523 27 19V15C27 14.4477 26.5523 14 26 14Z" stroke="#364153" stroke-width="2" stroke-linecap="round" stroke-linejoin="round"/>
<path d="M17 28V25C17 24.7348 17.1054 24.4804 17.2929 24.2929C17.4804 24.1054 17.7348 24 18 24H30C30.2652 24 30.5196 24.1054 30.7071 24.2929C30.8946 24.4804 31 24.7348 31 25V28" stroke="#364153" stroke-width="2" stroke-linecap="round" stroke-linejoin="round"/>
<path d="M24 24V20" stroke="#364153" stroke-width="2" stroke-linecap="round" stroke-linejoin="round"/>
</svg>
