<svg width="40" height="40" viewBox="0 0 40 40" fill="none" xmlns="http://www.w3.org/2000/svg">
<path d="M0 2C0 0.895431 0.895431 0 2 0H38C39.1046 0 40 0.895431 40 2V38C40 39.1046 39.1046 40 38 40H2C0.895431 40 0 39.1046 0 38V2Z" fill="#F3F4F6"/>
<path d="M23.3333 26.6665V13.3332C23.3333 12.8911 23.1577 12.4672 22.8452 12.1547C22.5326 11.8421 22.1087 11.6665 21.6667 11.6665H18.3333C17.8913 11.6665 17.4674 11.8421 17.1548 12.1547C16.8423 12.4672 16.6667 12.8911 16.6667 13.3332V26.6665" stroke="#364153" stroke-width="1.66667" stroke-linecap="round" stroke-linejoin="round"/>
<path d="M26.6667 15H13.3333C12.4128 15 11.6667 15.7462 11.6667 16.6667V25C11.6667 25.9205 12.4128 26.6667 13.3333 26.6667H26.6667C27.5871 26.6667 28.3333 25.9205 28.3333 25V16.6667C28.3333 15.7462 27.5871 15 26.6667 15Z" stroke="#364153" stroke-width="1.66667" stroke-linecap="round" stroke-linejoin="round"/>
</svg>
