<svg width="40" height="40" viewBox="0 0 40 40" fill="none" xmlns="http://www.w3.org/2000/svg">
<path d="M0 2C0 0.895431 0.895431 0 2 0H38C39.1046 0 40 0.895431 40 2V38C40 39.1046 39.1046 40 38 40H2C0.895431 40 0 39.1046 0 38V2Z" fill="#F3F4F6"/>
<g clip-path="url(#clip0_1_176)">
<path d="M20 15.8333V27.4999" stroke="#364153" stroke-width="1.66667" stroke-linecap="round" stroke-linejoin="round"/>
<path d="M12.5 25C12.279 25 12.067 24.9122 11.9107 24.7559C11.7545 24.5996 11.6667 24.3877 11.6667 24.1667V13.3333C11.6667 13.1123 11.7545 12.9004 11.9107 12.7441C12.067 12.5878 12.279 12.5 12.5 12.5H16.6667C17.5507 12.5 18.3986 12.8512 19.0237 13.4763C19.6488 14.1014 20 14.9493 20 15.8333C20 14.9493 20.3512 14.1014 20.9763 13.4763C21.6014 12.8512 22.4493 12.5 23.3333 12.5H27.5C27.721 12.5 27.933 12.5878 28.0892 12.7441C28.2455 12.9004 28.3333 13.1123 28.3333 13.3333V24.1667C28.3333 24.3877 28.2455 24.5996 28.0892 24.7559C27.933 24.9122 27.721 25 27.5 25H22.5C21.8369 25 21.2011 25.2634 20.7322 25.7322C20.2634 26.2011 20 26.837 20 27.5C20 26.837 19.7366 26.2011 19.2678 25.7322C18.7989 25.2634 18.163 25 17.5 25H12.5Z" stroke="#364153" stroke-width="1.66667" stroke-linecap="round" stroke-linejoin="round"/>
</g>
<defs>
<clipPath id="clip0_1_176">
<rect width="20" height="20" fill="white" transform="translate(10 10)"/>
</clipPath>
</defs>
</svg>
