<svg width="40" height="40" viewBox="0 0 40 40" fill="none" xmlns="http://www.w3.org/2000/svg">
<path d="M0 2C0 0.895431 0.895431 0 2 0H38C39.1046 0 40 0.895431 40 2V38C40 39.1046 39.1046 40 38 40H2C0.895431 40 0 39.1046 0 38V2Z" fill="#F3F4F6"/>
<path d="M22.5 21.6667C22.6667 20.8334 23.0833 20.2501 23.75 19.5834C24.5833 18.8334 25 17.7501 25 16.6667C25 15.3407 24.4732 14.0689 23.5355 13.1312C22.5979 12.1935 21.3261 11.6667 20 11.6667C18.6739 11.6667 17.4021 12.1935 16.4645 13.1312C15.5268 14.0689 15 15.3407 15 16.6667C15 17.5001 15.1667 18.5001 16.25 19.5834C16.8333 20.1667 17.3333 20.8334 17.5 21.6667" stroke="#364153" stroke-width="1.66667" stroke-linecap="round" stroke-linejoin="round"/>
<path d="M17.5 25H22.5" stroke="#364153" stroke-width="1.66667" stroke-linecap="round" stroke-linejoin="round"/>
<path d="M18.3333 28.3333H21.6667" stroke="#364153" stroke-width="1.66667" stroke-linecap="round" stroke-linejoin="round"/>
</svg>
