<svg width="152" height="20" viewBox="0 0 152 20" fill="none" xmlns="http://www.w3.org/2000/svg">
<path d="M16.6666 3.33301H3.33329C2.41282 3.33301 1.66663 4.0792 1.66663 4.99967V14.9997C1.66663 15.9201 2.41282 16.6663 3.33329 16.6663H16.6666C17.5871 16.6663 18.3333 15.9201 18.3333 14.9997V4.99967C18.3333 4.0792 17.5871 3.33301 16.6666 3.33301Z" stroke="#99A1AF" stroke-width="1.66667" stroke-linecap="round" stroke-linejoin="round"/>
<path d="M18.3333 5.83301L10.8583 10.583C10.601 10.7442 10.3036 10.8297 9.99996 10.8297C9.69636 10.8297 9.3989 10.7442 9.14163 10.583L1.66663 5.83301" stroke="#99A1AF" stroke-width="1.66667" stroke-linecap="round" stroke-linejoin="round"/>
<path d="M57.3334 6.66699C58.6595 6.66699 59.9312 7.19378 60.8689 8.13146C61.8066 9.06914 62.3334 10.3409 62.3334 11.667V17.5003H59V11.667C59 11.225 58.8244 10.801 58.5119 10.4885C58.1993 10.1759 57.7754 10.0003 57.3334 10.0003C56.8913 10.0003 56.4674 10.1759 56.1549 10.4885C55.8423 10.801 55.6667 11.225 55.6667 11.667V17.5003H52.3334V11.667C52.3334 10.3409 52.8602 9.06914 53.7978 8.13146C54.7355 7.19378 56.0073 6.66699 57.3334 6.66699Z" stroke="#99A1AF" stroke-width="1.66667" stroke-linecap="round" stroke-linejoin="round"/>
<path d="M49 7.5H45.6666V17.5H49V7.5Z" stroke="#99A1AF" stroke-width="1.66667" stroke-linecap="round" stroke-linejoin="round"/>
<path d="M47.3333 5.00033C48.2538 5.00033 49 4.25413 49 3.33366C49 2.41318 48.2538 1.66699 47.3333 1.66699C46.4128 1.66699 45.6666 2.41318 45.6666 3.33366C45.6666 4.25413 46.4128 5.00033 47.3333 5.00033Z" stroke="#99A1AF" stroke-width="1.66667" stroke-linecap="round" stroke-linejoin="round"/>
<path d="M106.333 3.33368C106.333 3.33368 105.75 5.08368 104.667 6.16701C106 14.5003 96.8333 20.5837 89.6666 15.8337C91.5 15.917 93.3333 15.3337 94.6666 14.167C90.5 12.917 88.4166 8.00034 90.5 4.16701C92.3333 6.33368 95.1666 7.58368 98 7.50034C97.25 4.00034 101.333 2.00034 103.833 4.33368C104.75 4.33368 106.333 3.33368 106.333 3.33368Z" stroke="#99A1AF" stroke-width="1.66667" stroke-linecap="round" stroke-linejoin="round"/>
<path d="M146.167 1.66699H137.833C135.532 1.66699 133.667 3.53247 133.667 5.83366V14.167C133.667 16.4682 135.532 18.3337 137.833 18.3337H146.167C148.468 18.3337 150.333 16.4682 150.333 14.167V5.83366C150.333 3.53247 148.468 1.66699 146.167 1.66699Z" stroke="#99A1AF" stroke-width="1.66667" stroke-linecap="round" stroke-linejoin="round"/>
<path d="M145.333 9.47525C145.436 10.1688 145.318 10.8771 144.995 11.4994C144.672 12.1218 144.161 12.6264 143.535 12.9416C142.908 13.2569 142.199 13.3666 141.506 13.2552C140.814 13.1438 140.175 12.817 139.679 12.3212C139.183 11.8255 138.856 11.186 138.745 10.4938C138.634 9.80154 138.743 9.09183 139.059 8.46556C139.374 7.8393 139.878 7.32837 140.501 7.00545C141.123 6.68254 141.831 6.56407 142.525 6.66692C143.232 6.77182 143.887 7.10147 144.393 7.60717C144.899 8.11288 145.228 8.76782 145.333 9.47525Z" stroke="#99A1AF" stroke-width="1.66667" stroke-linecap="round" stroke-linejoin="round"/>
<path d="M146.583 5.41699H146.592" stroke="#99A1AF" stroke-width="1.66667" stroke-linecap="round" stroke-linejoin="round"/>
</svg>
