<svg width="48" height="48" viewBox="0 0 48 48" fill="none" xmlns="http://www.w3.org/2000/svg">
<path d="M0 2C0 0.895431 0.895431 0 2 0H46C47.1046 0 48 0.895431 48 2V46C48 47.1046 47.1046 48 46 48H2C0.895431 48 0 47.1046 0 46V2Z" fill="#F3F4F6"/>
<path d="M27.477 24.8901L28.992 33.4161C29.009 33.5165 28.9949 33.6197 28.9516 33.7119C28.9084 33.8041 28.838 33.8808 28.7499 33.9319C28.6619 33.983 28.5603 34.006 28.4588 33.9978C28.3573 33.9897 28.2607 33.9507 28.182 33.8861L24.602 31.1991C24.4292 31.07 24.2192 31.0003 24.0035 31.0003C23.7878 31.0003 23.5778 31.07 23.405 31.1991L19.819 33.8851C19.7403 33.9496 19.6439 33.9885 19.5425 33.9967C19.4411 34.0049 19.3397 33.982 19.2517 33.931C19.1636 33.88 19.0933 33.8035 19.0499 33.7115C19.0066 33.6195 18.9923 33.5165 19.009 33.4161L20.523 24.8901" stroke="#364153" stroke-width="2" stroke-linecap="round" stroke-linejoin="round"/>
<path d="M24 26C27.3137 26 30 23.3137 30 20C30 16.6863 27.3137 14 24 14C20.6863 14 18 16.6863 18 20C18 23.3137 20.6863 26 24 26Z" stroke="#364153" stroke-width="2" stroke-linecap="round" stroke-linejoin="round"/>
</svg>
