<svg width="40" height="40" viewBox="0 0 40 40" fill="none" xmlns="http://www.w3.org/2000/svg">
<path d="M0 2C0 0.895431 0.895431 0 2 0H38C39.1046 0 40 0.895431 40 2V38C40 39.1046 39.1046 40 38 40H2C0.895431 40 0 39.1046 0 38V2Z" fill="#F3F4F6"/>
<path d="M28.0005 20.9985C28.0005 25.9985 24.5005 28.4985 20.3405 29.9485C20.1226 30.0223 19.886 30.0188 19.6705 29.9385C15.5005 28.4985 12.0005 25.9985 12.0005 20.9985V13.9985C12.0005 13.7333 12.1058 13.4789 12.2934 13.2914C12.4809 13.1039 12.7353 12.9985 13.0005 12.9985C15.0005 12.9985 17.5005 11.7985 19.2405 10.2785C19.4523 10.0975 19.7218 9.998 20.0005 9.998C20.2792 9.998 20.5486 10.0975 20.7605 10.2785C22.5105 11.8085 25.0005 12.9985 27.0005 12.9985C27.2657 12.9985 27.52 13.1039 27.7076 13.2914C27.8951 13.4789 28.0005 13.7333 28.0005 13.9985V20.9985Z" stroke="#364153" stroke-width="1.75" stroke-linecap="round" stroke-linejoin="round"/>
<path d="M17 20.002L19 22.002L23 18.0019" stroke="#364153" stroke-width="1.75" stroke-linecap="round" stroke-linejoin="round"/>
</svg>
