<?xml version="1.0" encoding="UTF-8"?>
<svg version="1.1" xmlns="http://www.w3.org/2000/svg" width="1166" height="318">
<path d="M0 0 C14.30934726 -0.07046735 28.61866713 -0.12297092 42.92815304 -0.15543652 C49.57416112 -0.17102617 56.2200204 -0.19214079 62.8659668 -0.22631836 C69.29155681 -0.25915219 75.71703461 -0.27690328 82.1427021 -0.28463173 C84.58203457 -0.2901324 87.02136159 -0.30087254 89.46064568 -0.31719017 C118.53478484 -0.50377139 143.57103702 3.89127457 166 24 C167.07894531 24.92039062 167.07894531 24.92039062 168.1796875 25.859375 C181.95307594 38.40012557 187.78274596 57.83596478 188.9140625 75.92871094 C189.69245155 94.68965611 184.42429027 114.86028016 171.75610352 129.13989258 C169.56385771 131.49007796 167.29976261 133.75523918 165 136 C164.05471174 136.94273084 163.11065191 137.88669544 162.16796875 138.83203125 C161.45253906 139.54746094 160.73710938 140.26289063 160 141 C160.72832031 141.27714844 161.45664062 141.55429688 162.20703125 141.83984375 C178.58019544 148.64100426 190.24332646 161.83559698 197 178 C201.77996883 191.16151141 203.37354285 203.85668943 203.3125 217.8125 C203.31067719 218.47297333 203.30885437 219.13344666 203.30697632 219.81393433 C203.19420788 244.07825004 196.04440164 265.46326413 180 284 C179.40832031 284.73605469 178.81664062 285.47210938 178.20703125 286.23046875 C162.9155472 304.65197938 141.44732956 314.90521244 118 318 C113.97291376 318.25484501 109.96342101 318.27437711 105.92919922 318.25878906 C104.78949173 318.2622937 103.64978424 318.26579834 102.47554016 318.26940918 C98.75185859 318.27813052 95.02837061 318.27241543 91.3046875 318.265625 C88.70346032 318.26697347 86.1022334 318.26891553 83.50100708 318.27142334 C78.07290997 318.27436077 72.64488464 318.27031117 67.21679688 318.26074219 C60.94086679 318.24980643 54.66506615 318.25342806 48.38913906 318.264395 C42.33533679 318.27454944 36.28159799 318.27349621 30.22778702 318.26763153 C27.65605781 318.26629489 25.0843253 318.26794326 22.51259995 318.27259064 C18.93392767 318.27764366 15.35550875 318.26996538 11.77685547 318.25878906 C10.70886215 318.26283752 9.64086884 318.26688599 8.54051208 318.27105713 C7.57064865 318.26541748 6.60078522 318.25977783 5.60153198 318.25396729 C4.75616316 318.25321323 3.91079433 318.25245918 3.03980827 318.25168228 C1 318 1 318 -1 316 C-1.15925369 313.48011091 -1.19203168 311.07525622 -1.13525391 308.55761719 C-1.12579805 307.77859606 -1.1163422 306.99957493 -1.10659981 306.1969471 C-1.07249703 303.56337417 -1.02422714 300.93023474 -0.9765625 298.296875 C-0.95013322 296.40594916 -0.92479077 294.51500786 -0.90045166 292.62405396 C-0.84623124 288.51342237 -0.78661861 284.40291748 -0.7230835 280.29241943 C-0.55061032 269.00523189 -0.42442692 257.71745645 -0.296875 246.4296875 C-0.28322277 245.24160114 -0.26957054 244.05351479 -0.25550461 242.82942581 C0.06614831 214.51146165 0.13026194 186.19457659 0.125 157.875 C0.12501385 156.6487088 0.12502769 155.4224176 0.12504196 154.15896606 C0.12425865 114.01108465 -0.14148662 73.86837584 -0.69041348 33.72416878 C-0.74344292 29.81518118 -0.79313805 25.90615444 -0.84256935 21.9971199 C-0.8780165 19.33250884 -0.91927254 16.66803068 -0.96086121 14.00350952 C-0.98142811 12.42193962 -1.0017343 10.8403663 -1.02172852 9.25878906 C-1.0346739 8.54404356 -1.04761929 7.82929806 -1.06095695 7.0928936 C-1.1138074 2.22761479 -1.1138074 2.22761479 0 0 Z M61 55 C60.69235047 57.85961511 60.69235047 57.85961511 60.74121094 61.25390625 C60.73490662 62.56866943 60.72860229 63.88343262 60.72210693 65.23803711 C60.7256866 66.6795261 60.72978854 68.12101387 60.734375 69.5625 C60.73302832 71.03458724 60.73108777 72.50667405 60.72857666 73.97875977 C60.72562551 77.06563548 60.72992268 80.15239553 60.73925781 83.23925781 C60.75065244 87.20072129 60.74409291 91.16191378 60.73211288 95.12336731 C60.724894 98.16363577 60.72718232 101.20383973 60.73236847 104.24411011 C60.73370489 105.7049869 60.7320575 107.1658695 60.72740936 108.6267395 C60.72234394 110.66652315 60.73143021 112.70632726 60.74121094 114.74609375 C60.74280212 115.90810303 60.74439331 117.0701123 60.74603271 118.26733398 C60.72018758 121.14594615 60.72018758 121.14594615 63 123 C79.9551322 126.78367161 101.26279714 124.73802387 116.375 116.0625 C123.02403821 110.83825569 128.69180584 105.04916847 130.51953125 96.59765625 C131.73459354 86.08331727 130.16113074 75.46831853 123.6484375 66.890625 C116.88806862 59.13702657 108.23017206 54.62650277 98 53 C95.29972206 52.89536533 92.62591999 52.83612773 89.92578125 52.83203125 C89.16073776 52.82870285 88.39569427 52.82537445 87.60746765 52.82194519 C85.9980021 52.81690133 84.38852618 52.81453608 82.77905273 52.81469727 C80.31021202 52.81249796 77.84180939 52.79428109 75.37304688 52.77539062 C73.80729319 52.77245878 72.24153739 52.77047259 70.67578125 52.76953125 C69.93620682 52.76234573 69.19663239 52.75516022 68.43464661 52.74775696 C64.26070659 52.62815403 64.26070659 52.62815403 61 55 Z M61 178 C60.80668887 180.73554999 60.73774844 183.36945506 60.75708008 186.10571289 C60.75518173 186.94320572 60.75328339 187.78069855 60.75132751 188.64356995 C60.74761381 191.42002637 60.75833153 194.19622296 60.76953125 196.97265625 C60.77072273 198.8955431 60.77117628 200.81843054 60.7709198 202.74131775 C60.77248564 206.77395259 60.78078363 210.80649878 60.79418945 214.83911133 C60.81119083 220.02025519 60.81500353 225.20130164 60.81424427 230.38247013 C60.81451557 234.3534387 60.81999011 238.32438577 60.82724571 242.29534721 C60.83043806 244.20641352 60.8324011 246.11748227 60.83313942 248.0285511 C60.83529636 250.69363726 60.84402617 253.35861796 60.85473633 256.02368164 C60.85428314 256.82110779 60.85382996 257.61853394 60.85336304 258.44012451 C60.54190379 262.01617945 60.54190379 262.01617945 62 265 C64.64807566 265.1262537 67.26849007 265.18872835 69.91796875 265.203125 C70.72680008 265.20882507 71.53563141 265.21452515 72.36897278 265.22039795 C74.09321784 265.22987438 75.81748123 265.23639235 77.54174805 265.24023438 C80.13169309 265.24979401 82.72079343 265.28072693 85.31054688 265.3125 C101.5331525 265.41758895 117.79382688 263.83625809 130.375 252.375 C139.78331972 242.1434523 142.68820635 229.58940592 142.3125 216.109375 C141.72580291 205.63683193 137.7900701 195.67323012 130.2578125 188.29296875 C115.43251462 176.14360638 96.13617589 176.50793244 78 176 C77.19836426 175.97663574 76.39672852 175.95327148 75.57080078 175.92919922 C67.64161959 175.09037603 67.64161959 175.09037603 61 178 Z " fill="#FFFFFF" transform="translate(762,0)"/>
<path d="M0 0 C1.10681625 0.00067978 1.10681625 0.00067978 2.23599243 0.00137329 C3.01046219 -0.00198532 3.78493195 -0.00534393 4.58287048 -0.00880432 C7.16997859 -0.01837344 9.75702196 -0.02026279 12.34414673 -0.02133179 C14.1589409 -0.02454884 15.97373481 -0.02791324 17.78852844 -0.03141785 C21.61965531 -0.03742978 25.45075961 -0.03925649 29.28189087 -0.03866577 C33.15791601 -0.03858557 37.03382032 -0.04534758 40.90982056 -0.05917358 C131.98505945 -0.37928537 131.98505945 -0.37928537 163.26602173 29.43179321 C186.21677366 53.49027374 192.79285691 83.15413501 192.14102173 115.63882446 C191.29199631 144.05098066 181.89498194 167.84427714 161.29336548 187.96304321 C158.47636392 190.48660711 155.53874906 192.66479774 152.35195923 194.69741821 C150.25413328 196.72951593 150.18459772 198.26749111 149.85586548 201.14663696 C150.35886806 203.75025466 150.35886806 203.75025466 151.35610962 206.41958618 C151.71191605 207.45590179 152.06772247 208.49221741 152.43431091 209.55993652 C152.83252548 210.67909454 153.23074005 211.79825256 153.64102173 212.95132446 C154.04862228 214.1267984 154.45622284 215.30227234 154.87617493 216.5133667 C155.98243398 219.69501832 157.09944877 222.87246246 158.22218323 226.04830933 C159.38488528 229.3439867 160.5349607 232.64406806 161.68692017 235.94351196 C163.7552724 241.86030663 165.83698498 247.77229484 167.92587852 253.68186569 C169.30683252 257.58915409 170.68226465 261.49832275 172.05264282 265.40933228 C173.6135416 269.86353458 175.1823748 274.31482302 176.76062012 278.76290894 C177.31205336 280.31803948 177.86171794 281.87379865 178.40936279 283.43026733 C181.65372428 292.62900284 185.24925199 301.57308696 189.32943726 310.43667603 C191.85586548 315.95237301 191.85586548 315.95237301 191.85586548 318.14663696 C184.08474387 318.23928725 176.31375145 318.31037621 168.5422163 318.35388565 C164.93359569 318.37476747 161.32535271 318.40309461 157.71694946 318.44839478 C154.23506773 318.49183339 150.75354938 318.51576959 147.27141762 318.52614594 C145.29539113 318.537142 143.319511 318.56837149 141.34370422 318.599823 C140.1426857 318.60012512 138.94166718 318.60042725 137.70425415 318.60073853 C136.64502243 318.60962097 135.58579071 318.61850342 134.49446106 318.62765503 C131.85586548 318.14663696 131.85586548 318.14663696 130.102005 316.42825317 C128.79616778 314.0373336 127.8914521 311.78423206 127.06924438 309.18667603 C126.75060928 308.19357925 126.43197418 307.20048248 126.10368347 306.17729187 C125.76666916 305.099832 125.42965485 304.02237213 125.08242798 302.91226196 C124.72200912 301.78191025 124.36159027 300.65155853 123.99024963 299.48695374 C123.21598615 297.05561653 122.44524914 294.62315406 121.67767334 292.18969727 C120.47757988 288.38622388 119.26794802 284.58586482 118.05484009 280.78652954 C115.29256706 272.13001269 112.54467151 263.46894949 109.79647827 254.80795288 C107.95461446 249.0063106 106.10557959 243.20708282 104.24349976 237.41189575 C103.43140594 234.87487599 102.63008964 232.3346129 101.82901001 229.7940979 C101.33986235 228.26949171 100.85015275 226.74506565 100.35977173 225.22085571 C100.14803818 224.53913803 99.93630463 223.85742035 99.71815491 223.15504456 C98.29745342 218.38930765 98.29745342 218.38930765 94.85586548 215.14663696 C92.14315937 215.01289073 89.70228096 215.05227805 87.01211548 215.25601196 C86.24661377 215.30227722 85.48111206 215.34854248 84.69241333 215.39620972 C83.07471187 215.49675438 81.45746371 215.60483421 79.84072876 215.71987915 C77.36605808 215.89591192 74.89079437 216.05070658 72.41445923 216.20132446 C70.84276539 216.30165302 69.27114722 216.40317558 67.69961548 216.50601196 C66.95892822 216.5540094 66.21824097 216.60200684 65.45510864 216.65145874 C62.3949985 216.8713891 59.78065031 217.17170869 56.85586548 218.14663696 C56.85808609 219.38469589 56.8603067 220.62275482 56.8625946 221.89833069 C56.88282402 233.53848918 56.89783665 245.17864413 56.90767765 256.81881618 C56.91290699 262.80382962 56.92000555 268.78882893 56.93130493 274.77383423 C56.94213201 280.54447126 56.94814193 286.31509465 56.95074272 292.08574104 C56.9525973 294.2926664 56.95621852 296.49959096 56.96159554 298.70651054 C56.96880358 301.78609738 56.96985652 304.8656271 56.96939087 307.94522095 C56.97298615 308.86734879 56.97658142 309.78947662 56.98028564 310.73954773 C56.96991764 317.0325848 56.96991764 317.0325848 55.85586548 318.14663696 C53.95887699 318.24579491 52.05817761 318.2746301 50.15859985 318.27603149 C48.94063721 318.27918365 47.72267456 318.28233582 46.46780396 318.2855835 C45.12840743 318.28379371 43.78901123 318.28174276 42.44961548 318.27944946 C41.08580508 318.28012256 39.7219948 318.28109263 38.35818481 318.28234863 C35.49656027 318.28382534 32.63496688 318.28167193 29.77334595 318.27700806 C26.09767934 318.27131077 22.42208574 318.27458992 18.74642181 318.28058052 C15.92924444 318.28418687 13.1120845 318.28304721 10.29490662 318.28045273 C8.93926485 318.27978366 7.58362152 318.28061117 6.22798157 318.28293228 C4.33636504 318.28545997 2.44474299 318.2809271 0.5531311 318.27603149 C-1.06450134 318.2748381 -1.06450134 318.2748381 -2.71481323 318.27362061 C-5.14413452 318.14663696 -5.14413452 318.14663696 -6.14413452 317.14663696 C-6.24227796 315.46385996 -6.2696903 313.77692986 -6.26997566 312.09129333 C-6.27258341 310.98916598 -6.27519116 309.88703863 -6.27787793 308.75151348 C-6.27564721 307.52556878 -6.27341648 306.29962408 -6.27111816 305.03652954 C-6.27267815 303.74597814 -6.27423815 302.45542673 -6.27584541 301.12576771 C-6.28004323 297.52705162 -6.27794602 293.92836185 -6.27485919 290.32964563 C-6.27260714 286.45503207 -6.27608373 282.5804232 -6.27883911 278.70581055 C-6.2832979 271.10890574 -6.28231986 263.51201078 -6.27942647 255.91510558 C-6.27717286 249.74379759 -6.27685973 243.57249237 -6.27795029 237.40118408 C-6.27818014 236.08629917 -6.27818014 236.08629917 -6.27841463 234.74485093 C-6.27873434 232.9643662 -6.27905855 231.18388146 -6.27938722 229.40339673 C-6.28224233 212.68730631 -6.2789545 195.97122136 -6.27358685 179.25513184 C-6.26911879 164.89572195 -6.26989471 150.53632014 -6.27450562 136.1769104 C-6.27985083 119.5227619 -6.28196764 102.8686182 -6.27889335 86.21446896 C-6.27857478 84.44034259 -6.27826041 82.66621622 -6.27795029 80.89208984 C-6.27779601 80.0190667 -6.27764174 79.14604355 -6.27748279 78.24656516 C-6.27661747 72.07894673 -6.27808081 65.91133134 -6.28042984 59.74371338 C-6.28322746 52.2327954 -6.2824904 44.72188789 -6.2771491 37.21097112 C-6.27451156 33.37497968 -6.2735079 29.5390057 -6.27679825 25.70301437 C-6.2803032 21.55424234 -6.27613311 17.40551484 -6.27111816 13.25674438 C-6.27334889 12.03079968 -6.27557961 10.80485498 -6.27787793 9.54176044 C-6.27527018 8.43963309 -6.27266243 7.33750574 -6.26997566 6.20198059 C-6.26981331 5.24296939 -6.26965096 4.28395819 -6.26948369 3.29588604 C-6.02555325 -0.88656915 -3.61745354 0.02310679 0 0 Z M55.85586548 54.14663696 C55.75516583 57.30212267 55.71972533 60.43576495 55.72647095 63.59170532 C55.72471863 64.58350296 55.72296631 65.5753006 55.72116089 66.59715271 C55.71673995 69.89361289 55.71968144 73.19001993 55.72305298 76.48648071 C55.72237996 78.76712555 55.72140994 81.04777032 55.72015381 83.32841492 C55.71867646 88.1160551 55.72083237 92.90367667 55.72549438 97.6913147 C55.73118847 103.83980512 55.72791492 109.98825187 55.72192192 116.13674068 C55.71831455 120.84891593 55.71945577 125.56108075 55.72204971 130.2732563 C55.72271866 132.54075691 55.72189168 134.80825846 55.71957016 137.07575798 C55.71704112 140.24125561 55.72088798 143.40668179 55.72647095 146.57217407 C55.72444672 147.51718781 55.72242249 148.46220154 55.72033691 149.43585205 C55.72315674 150.29539993 55.72597656 151.15494781 55.72888184 152.0405426 C55.72925886 152.78958327 55.72963589 153.53862394 55.73002434 154.31036282 C55.74415678 156.24406527 55.74415678 156.24406527 56.85586548 158.14663696 C88.3495751 159.05135968 88.3495751 159.05135968 115.35586548 144.33413696 C126.5990248 131.74564234 129.75557235 117.00268607 129.17617798 100.54116821 C128.85475989 95.10827761 127.88509518 90.20738797 125.85586548 85.14663696 C125.52715454 84.31132446 125.1984436 83.47601196 124.85977173 82.61538696 C119.73803194 71.13134758 111.18715452 63.35515124 99.85586548 58.14663696 C91.72782423 55.12396403 83.7609238 53.02397197 75.05508423 53.01382446 C73.46663696 53.01189087 73.46663696 53.01189087 71.84609985 53.00991821 C70.75619751 53.0137854 69.66629517 53.01765259 68.54336548 53.02163696 C67.4341272 53.01776978 66.32488892 53.01390259 65.18203735 53.00991821 C64.12951782 53.01120728 63.07699829 53.01249634 61.99258423 53.01382446 C60.54951904 53.01551636 60.54951904 53.01551636 59.07730103 53.01724243 C56.88280449 52.89810052 56.88280449 52.89810052 55.85586548 54.14663696 Z " fill="#FFFFFF" transform="translate(313.1441345214844,-0.146636962890625)"/>
<path d="M0 0 C0.64141544 -0.00311998 1.28283088 -0.00623996 1.94368315 -0.00945449 C4.10256233 -0.01746027 6.26116244 -0.011101 8.42004395 -0.00482178 C9.96387396 -0.0075305 11.50770268 -0.01109076 13.05152893 -0.01544189 C17.25185611 -0.02458231 21.45208536 -0.02101487 25.65241432 -0.01468372 C30.04106543 -0.00963226 34.42970795 -0.01431279 38.81835938 -0.01745605 C46.18934642 -0.0210982 53.56029344 -0.01629011 60.93127441 -0.0067749 C69.46209213 0.00411013 77.99281426 0.00058473 86.52362967 -0.01042771 C93.83829872 -0.01949354 101.15293894 -0.02078933 108.46761179 -0.01555037 C112.84060134 -0.01242678 117.21354591 -0.01203196 121.58653259 -0.01862335 C125.69705636 -0.02438597 129.80745648 -0.02041993 133.91796684 -0.00883484 C135.42970512 -0.00618242 136.94145374 -0.00696321 138.45318794 -0.01136017 C140.51068217 -0.01679432 142.56777571 -0.01000796 144.62524414 0 C145.77857491 0.00075405 146.93190567 0.0015081 148.12018585 0.002285 C150.81262207 0.25396729 150.81262207 0.25396729 152.81262207 2.25396729 C153.05986023 4.34124756 153.05986023 4.34124756 153.05554199 6.94732666 C153.05861862 7.92173706 153.06169525 8.89614746 153.06486511 9.90008545 C153.05408684 11.48291321 153.05408684 11.48291321 153.04309082 13.09771729 C153.0426326 14.17775024 153.04217438 15.2577832 153.04170227 16.37054443 C153.0386774 18.65705461 153.03078416 20.94356269 153.01843262 23.2300415 C153.0001978 26.73939272 152.99792274 30.24847994 152.99816895 33.75787354 C152.99325307 35.97532374 152.98742445 38.19277216 152.98059082 40.41021729 C152.979478 41.46543579 152.97836517 42.5206543 152.97721863 43.60784912 C152.97083878 44.58225952 152.96445892 45.55666992 152.95788574 46.56060791 C152.95407394 47.42061401 152.95026215 48.28062012 152.94633484 49.16668701 C152.81262207 51.25396729 152.81262207 51.25396729 151.81262207 53.25396729 C147.82311378 54.58380338 144.00173151 54.38471402 139.84313965 54.36749268 C138.46722908 54.36771172 138.46722908 54.36771172 137.06352234 54.36793518 C134.02804204 54.36723786 130.99262291 54.35945385 127.95715332 54.35162354 C125.85393813 54.34975872 123.7507225 54.34833511 121.64750671 54.34733582 C116.10892541 54.34351567 110.57037027 54.33368965 105.03179932 54.32263184 C98.38798819 54.31060953 91.74416832 54.30601308 85.10034943 54.30017853 C75.00442209 54.29047766 64.90855221 54.27131756 54.81262207 54.25396729 C54.81262207 77.35396729 54.81262207 100.45396729 54.81262207 124.25396729 C57.7723254 125.73381895 60.40655046 125.35694286 63.70910645 125.33575439 C64.77274162 125.33115456 64.77274162 125.33115456 65.85786438 125.32646179 C67.39933901 125.31930158 68.9408045 125.30990891 70.48225403 125.29856682 C72.91932783 125.28121881 75.35633647 125.27089122 77.79345703 125.26264954 C84.723248 125.23815506 91.65295107 125.20255345 98.5826416 125.15802002 C102.81890787 125.13128777 107.05512337 125.11421212 111.29145813 125.10315132 C112.90865457 125.09692862 114.52584088 125.08690733 116.14299011 125.07307243 C118.40077209 125.05392779 120.65828568 125.04697039 122.9161377 125.04278564 C124.84568298 125.0315995 124.84568298 125.0315995 126.81420898 125.02018738 C129.81262207 125.25396729 129.81262207 125.25396729 131.81262207 127.25396729 C132.06658936 129.30328369 132.06658936 129.30328369 132.07141113 131.85552979 C132.07771545 132.80991943 132.08401978 133.76430908 132.09051514 134.74761963 C132.08444244 136.29763672 132.08444244 136.29763672 132.07824707 137.87896729 C132.08016052 138.9368042 132.08207397 139.99464111 132.08404541 141.08453369 C132.08540809 143.32395668 132.08170589 145.56338754 132.07336426 147.80279541 C132.06266609 151.23982406 132.07325695 154.67632998 132.08605957 158.11334229 C132.08473799 160.28521844 132.08217563 162.45709428 132.07824707 164.62896729 C132.08229553 165.66231201 132.08634399 166.69565674 132.09051514 167.76031494 C132.08105865 169.19189941 132.08105865 169.19189941 132.07141113 170.65240479 C132.06981995 171.494646 132.06822876 172.33688721 132.06658936 173.20465088 C131.81262207 175.25396729 131.81262207 175.25396729 129.81262207 177.25396729 C126.76951599 177.48774719 126.76951599 177.48774719 122.80847168 177.46514893 C122.0880217 177.46383469 121.36757172 177.46252045 120.62528992 177.46116638 C118.23838285 177.45466281 115.85179373 177.43422678 113.46496582 177.41412354 C111.81112515 177.40785592 110.1572803 177.4026149 108.50343323 177.39836121 C104.14555008 177.38504095 99.78780633 177.36059711 95.42999268 177.33300781 C88.45040199 177.28992883 81.47077275 177.2602362 74.49109077 177.23696709 C72.04637182 177.22670291 69.60176436 177.20965746 67.15708923 177.19197083 C65.66718649 177.18514615 64.17728274 177.17853734 62.68737793 177.17218018 C61.3810289 177.16392715 60.07467987 177.15567413 58.72874451 177.14717102 C55.92097643 176.91869484 55.92097643 176.91869484 54.81262207 178.25396729 C54.68750063 180.93099165 54.62655638 183.58349002 54.6072998 186.26202393 C54.59740021 187.10097702 54.58750061 187.93993011 54.57730103 188.80430603 C54.54559022 191.59088268 54.52089093 194.37747641 54.49621582 197.16412354 C54.47565455 199.09084021 54.45465831 201.01755228 54.4332428 202.94425964 C54.37793665 208.02579029 54.32856519 213.10736221 54.28039551 218.18896484 C54.23024269 223.37017509 54.17452424 228.55132508 54.1192627 233.73248291 C54.0115767 243.90625961 53.91015507 254.08008854 53.81262207 264.25396729 C55.05876785 264.24952606 56.30491364 264.24508484 57.58882141 264.24050903 C69.31664378 264.2000145 81.04445203 264.1700077 92.77232838 264.15034294 C98.80214661 264.13989335 104.83190852 264.12571269 110.86169434 264.10308838 C116.67773176 264.08140195 122.49371493 264.06940752 128.30978966 264.0642128 C130.531815 264.06050948 132.75383729 264.05327812 134.97583961 264.04250717 C138.08141183 264.02804815 141.18675809 264.025987 144.2923584 264.0269165 C145.21664642 264.01972595 146.14093445 264.0125354 147.0932312 264.00512695 C147.9387706 264.00787628 148.78431 264.01062561 149.6554718 264.01345825 C150.39014081 264.01161467 151.12480982 264.00977108 151.88174152 264.00787163 C153.81262207 264.25396729 153.81262207 264.25396729 156.81262207 266.25396729 C157.18011475 268.42390442 157.18011475 268.42390442 157.16906738 271.14678955 C157.17356903 272.67330894 157.17356903 272.67330894 157.17816162 274.23066711 C157.15964142 275.88382179 157.15964142 275.88382179 157.14074707 277.57037354 C157.1388739 278.69717026 157.13700073 279.82396698 157.1350708 280.98490906 C157.12833971 283.36979119 157.11440445 285.75466209 157.09387207 288.13946533 C157.06272217 291.80468922 157.05290375 295.46948356 157.04699707 299.13482666 C157.03782745 301.4466809 157.02745182 303.75853074 157.01574707 306.07037354 C157.01149719 307.17450089 157.00724731 308.27862823 157.00286865 309.41621399 C156.99326111 310.43074142 156.98365356 311.44526886 156.97375488 312.49053955 C156.96351288 313.8371743 156.96351288 313.8371743 156.95306396 315.21101379 C156.81262207 317.25396729 156.81262207 317.25396729 155.81262207 318.25396729 C153.71398722 318.35303177 151.6119579 318.38029072 149.51098633 318.38095093 C148.84521843 318.38251092 148.17945054 318.38407091 147.49350786 318.38567817 C145.24634161 318.38969005 142.99924204 318.38649782 140.7520752 318.38336182 C139.1476589 318.38471577 137.54324291 318.38649568 135.93882751 318.38867188 C131.56911653 318.39324686 127.19942905 318.39145638 122.82971764 318.38829279 C118.26709299 318.38576952 113.70447042 318.38810663 109.1418457 318.38967896 C101.4782271 318.39150075 93.81461812 318.38909409 86.15100098 318.38433838 C77.27768257 318.37889574 68.40438713 318.38065839 59.53106928 318.38616478 C51.92684815 318.39069564 44.32263396 318.3913466 36.71841192 318.38872612 C32.17051155 318.38716319 27.62262198 318.38697 23.07472229 318.3902626 C18.80009442 318.39314092 14.5254963 318.39116637 10.25087166 318.38536835 C8.67743543 318.38404053 7.10399671 318.38443522 5.53056145 318.38663101 C3.39175919 318.38934169 1.25305381 318.38596244 -0.88574219 318.38095093 C-2.08553963 318.3805739 -3.28533707 318.38019688 -4.521492 318.37980843 C-7.18737793 318.25396729 -7.18737793 318.25396729 -8.18737793 317.25396729 C-8.29586127 314.78437595 -8.32757556 312.3493835 -8.31237793 309.87896729 C-8.3089035 309.07883209 -8.30542908 308.2786969 -8.30184937 307.45431519 C-8.24826466 300.6481324 -8.05615645 293.85259562 -7.82699585 287.05026245 C-7.10487464 265.3743719 -7.03222722 243.71096545 -7.05921173 222.02487946 C-7.06242502 218.8321764 -7.0631019 215.63948192 -7.06304932 212.44677734 C-7.06430876 181.73456879 -7.22897963 151.02495441 -7.46364164 120.31380129 C-7.49102711 116.7050389 -7.51768713 113.09627133 -7.54429901 109.48750317 C-7.57756177 104.97915455 -7.61118078 100.47080862 -7.64489746 95.96246338 C-7.65156158 95.07020766 -7.65822569 94.17795194 -7.66509175 93.25865817 C-7.74604329 82.47181114 -7.83504981 71.68508157 -7.9353447 60.89839673 C-7.9985668 54.05876919 -8.05498704 47.21910698 -8.10632133 40.37937999 C-8.14259828 35.60070877 -8.18741344 30.82222101 -8.23868692 26.04368842 C-8.26790756 23.12432247 -8.28880373 20.20494311 -8.30719972 17.28549075 C-8.3222469 15.29369139 -8.34736884 13.30197617 -8.37275505 11.31028175 C-8.37842051 10.13703032 -8.38408596 8.96377888 -8.3899231 7.75497437 C-8.39914103 6.7341231 -8.40835896 5.71327183 -8.41785622 4.66148567 C-7.91351003 -0.60678816 -4.40794794 0.00288193 0 0 Z " fill="#FFFFFF" transform="translate(1009.1873779296875,-0.25396728515625)"/>
<path d="M0 0 C1.88700623 -0.00472824 1.88700623 -0.00472824 3.81213379 -0.009552 C5.19571975 -0.00776222 6.5793054 -0.00571127 7.96289062 -0.00341797 C9.37154151 -0.00409106 10.78019229 -0.00506112 12.18884277 -0.00631714 C15.14462385 -0.00779389 18.10037476 -0.0056403 21.05615234 -0.00097656 C24.85288647 0.00472073 28.64954991 0.0014416 32.44628143 -0.00454903 C35.35610491 -0.00815526 38.2659115 -0.00701577 41.17573547 -0.00442123 C42.57603463 -0.00375214 43.9763353 -0.00457979 45.37663269 -0.00690079 C47.33051526 -0.00942829 49.28440318 -0.0048958 51.23828125 0 C52.35223267 0.00079559 53.46618408 0.00159119 54.6138916 0.00241089 C57.11914062 0.12939453 57.11914062 0.12939453 58.11914062 1.12939453 C58.21832562 3.22748405 58.24546465 5.3289803 58.24612427 7.42941284 C58.24846638 8.43113301 58.24846638 8.43113301 58.2508558 9.45308995 C58.25487822 11.71484227 58.25167407 13.97652831 58.24853516 16.23828125 C58.2498694 17.86083451 58.25162724 19.48338748 58.25377655 21.10593987 C58.25832451 25.56611955 58.25645153 30.02627675 58.25336504 34.48645687 C58.25147042 38.27408209 58.25306532 42.06170248 58.25470197 45.84932756 C58.25908137 56.03943881 58.25612549 66.22953612 58.24970567 76.41964579 C58.24506303 83.84712662 58.24266281 91.27460526 58.24145508 98.7020874 C58.2272572 171.84821146 57.86525138 244.98714923 57.11914062 318.12939453 C48.92223502 318.15252163 40.72534294 318.17031149 32.52841282 318.1812067 C28.72262485 318.18643473 24.91685914 318.19353091 21.11108398 318.20483398 C17.44121518 318.21566573 13.77136784 318.22167197 10.1014843 318.22427177 C8.6983907 318.22612551 7.29529833 318.22974513 5.89221382 318.23512459 C3.93344382 318.24233872 1.97465242 318.24280262 0.01586914 318.24291992 C-1.10109848 318.24514053 -2.2180661 318.24736115 -3.36888123 318.24964905 C-5.88085938 318.12939453 -5.88085938 318.12939453 -6.88085938 317.12939453 C-6.97900281 315.44661753 -7.00641515 313.75968743 -7.00670052 312.0740509 C-7.00930826 310.97192355 -7.01191601 309.8697962 -7.01460278 308.73427105 C-7.01237206 307.50832635 -7.01014134 306.28238165 -7.00784302 305.01928711 C-7.00940301 303.7287357 -7.010963 302.4381843 -7.01257026 301.10852528 C-7.01676808 297.50980919 -7.01467087 293.91111942 -7.01158404 290.3124032 C-7.00933199 286.43778964 -7.01280858 282.56318076 -7.01556396 278.68856812 C-7.02002276 271.09166331 -7.01904471 263.49476835 -7.01615132 255.89786315 C-7.01389772 249.72655516 -7.01358458 243.55524994 -7.01467514 237.38394165 C-7.01490499 236.06905674 -7.01490499 236.06905674 -7.01513948 234.7276085 C-7.01545919 232.94712377 -7.0157834 231.16663903 -7.01611207 229.38615429 C-7.01896718 212.67006388 -7.01567936 195.95397893 -7.01031171 179.23788941 C-7.00584364 164.87847952 -7.00661956 150.51907771 -7.01123047 136.15966797 C-7.01657568 119.50551947 -7.01869249 102.85137577 -7.01561821 86.19722652 C-7.01529964 84.42310015 -7.01498527 82.64897378 -7.01467514 80.87484741 C-7.01452086 80.00182427 -7.01436659 79.12880112 -7.01420764 78.22932273 C-7.01334232 72.0617043 -7.01480567 65.89408891 -7.01715469 59.72647095 C-7.01995231 52.21555297 -7.01921525 44.70464545 -7.01387395 37.19372869 C-7.01123641 33.35773725 -7.01023275 29.52176327 -7.0135231 25.68577194 C-7.01702806 21.53699991 -7.01285796 17.38827241 -7.00784302 13.23950195 C-7.01007374 12.01355725 -7.01230446 10.78761255 -7.01460278 9.52451801 C-7.01199503 8.42239066 -7.00938729 7.32026331 -7.00670052 6.18473816 C-7.00653816 5.22572696 -7.00637581 4.26671576 -7.00620854 3.27864361 C-6.74968745 -1.11969224 -3.74519463 0.00267485 0 0 Z " fill="#FFFFFF" transform="translate(653.880859375,-0.12939453125)"/>
<path d="M0 0 C1.91703735 -0.00472824 1.91703735 -0.00472824 3.87280273 -0.009552 C5.27848342 -0.00776222 6.6841638 -0.00571127 8.08984375 -0.00341797 C9.52091488 -0.00409105 10.9519859 -0.00506111 12.38305664 -0.00631714 C15.38591599 -0.00779391 18.38874565 -0.00564023 21.39160156 -0.00097656 C25.24886946 0.00472073 29.10606779 0.00144161 32.96333313 -0.00454903 C35.91947966 -0.00815521 38.87560958 -0.00701579 41.83175659 -0.00442123 C43.25438444 -0.00375212 44.67701378 -0.00457984 46.09963989 -0.00690079 C48.08465549 -0.0094282 50.06967634 -0.00489589 52.0546875 0 C53.75226196 0.00119339 53.75226196 0.00119339 55.48413086 0.00241089 C58.02734375 0.12939453 58.02734375 0.12939453 59.02734375 1.12939453 C59.12548719 2.81217153 59.15289953 4.49910163 59.15318489 6.18473816 C59.15579264 7.28686551 59.15840039 8.38899286 59.16108716 9.52451801 C59.15885643 10.75046271 59.15662571 11.97640741 59.15432739 13.23950195 C59.15666738 15.17532906 59.15666738 15.17532906 59.15905464 17.15026379 C59.16325246 20.74897987 59.16115524 24.34766965 59.15806842 27.94638586 C59.15581637 31.82099943 59.15929295 35.6956083 59.16204834 39.57022095 C59.16650713 47.16712575 59.16552909 54.76402071 59.1626357 62.36092591 C59.16038209 68.53223391 59.16006896 74.70353913 59.16115952 80.87484741 C59.16131275 81.75143735 59.16146598 82.62802729 59.16162386 83.53118056 C59.16194357 85.3116653 59.16226778 87.09215003 59.16259645 88.87263477 C59.16545156 105.58872519 59.16216373 122.30481013 59.15679608 139.02089965 C59.15232802 153.38030954 59.15310394 167.73971135 59.15771484 182.09912109 C59.16306006 198.7532696 59.16517687 215.4074133 59.16210258 232.06156254 C59.16178401 233.83568891 59.16146964 235.60981528 59.16115952 237.38394165 C59.1609281 238.69347637 59.1609281 238.69347637 59.16069201 240.02946633 C59.1598267 246.19708476 59.16129004 252.36470016 59.16363907 258.53231812 C59.16643668 266.04323609 59.16569963 273.55414361 59.16035832 281.06506038 C59.15772078 284.90105182 59.15671713 288.73702579 59.16000748 292.57301712 C59.16351243 296.72178915 59.15934234 300.87051665 59.15432739 305.01928711 C59.15767348 306.85820416 59.15767348 306.85820416 59.16108716 308.73427105 C59.15717553 310.38746208 59.15717553 310.38746208 59.15318489 312.0740509 C59.15302254 313.03306211 59.15286019 313.99207331 59.15269291 314.98014545 C59.02734375 317.12939453 59.02734375 317.12939453 58.02734375 318.12939453 C56.03846881 318.22869986 54.04603958 318.25738915 52.0546875 318.25878906 C50.13765015 318.2635173 50.13765015 318.2635173 48.18188477 318.26834106 C46.77620408 318.26655128 45.3705237 318.26450033 43.96484375 318.26220703 C42.53377262 318.26288011 41.1027016 318.26385018 39.67163086 318.2651062 C36.66877151 318.26658297 33.66594185 318.2644293 30.66308594 318.25976562 C26.80581804 318.25406834 22.94861971 318.25734745 19.09135437 318.26333809 C16.13520784 318.26694427 13.17907792 318.26580486 10.22293091 318.2632103 C8.80030306 318.26254119 7.37767372 318.2633689 5.95504761 318.26568985 C3.97003201 318.26821727 1.98501116 318.26368496 0 318.25878906 C-1.69757446 318.25759567 -1.69757446 318.25759567 -3.42944336 318.25637817 C-5.97265625 318.12939453 -5.97265625 318.12939453 -6.97265625 317.12939453 C-6.99154575 315.09371184 -6.93688753 313.05736529 -6.85623169 311.02319336 C-6.80755049 309.65192777 -6.75936194 308.28064463 -6.71157646 306.90934753 C-6.68404911 306.16163778 -6.65652175 305.41392803 -6.62816024 304.64356041 C-6.0078525 287.28999451 -5.86037776 269.94202485 -5.84326172 252.57861328 C-5.84133485 250.71399917 -5.84133485 250.71399917 -5.83936906 248.81171608 C-5.83350539 241.55157591 -5.83382299 234.29144854 -5.83735775 227.03130835 C-5.83966589 222.14543379 -5.83991463 217.2595627 -5.83884048 212.37368774 C-5.83868725 211.66872085 -5.83853402 210.96375396 -5.83837614 210.23742443 C-5.83805632 208.80389555 -5.8377321 207.37036667 -5.83740355 205.93683779 C-5.83457993 192.62595156 -5.83778788 179.31507231 -5.84320392 166.00418723 C-5.84768489 154.63966953 -5.84687933 143.27516205 -5.84228516 131.91064453 C-5.83691087 118.61074564 -5.83483801 105.31085278 -5.83789742 92.01095295 C-5.83821588 90.58865166 -5.83853025 89.16635037 -5.83884048 87.74404907 C-5.8390719 86.69514265 -5.8390719 86.69514265 -5.83930799 85.62504619 C-5.84016343 80.74981567 -5.83873181 75.87458905 -5.83636093 70.99935913 C-5.83323334 64.42602484 -5.83551832 57.85270666 -5.84125519 51.27937317 C-5.84256421 48.88545259 -5.84222078 46.49153037 -5.83999252 44.09761047 C-5.82964091 31.83616973 -5.95284552 19.62713043 -6.71140563 7.38558483 C-6.8339422 5.30197066 -6.90859822 3.21562553 -6.97265625 1.12939453 C-5.17003103 -0.67323069 -2.42888615 0.0017075 0 0 Z " fill="#FFFFFF" transform="translate(540.97265625,-0.12939453125)"/>
<path d="M0 0 C1.07454941 -0.00287018 1.07454941 -0.00287018 2.17080688 -0.00579834 C3.68548941 -0.00715833 5.20018367 -0.00347482 6.71484375 0.00488281 C9.02370693 0.01555403 11.33178651 0.00499796 13.640625 -0.0078125 C15.11458504 -0.00649026 16.5885446 -0.00392652 18.0625 0 C18.74911713 -0.00404846 19.43573425 -0.00809692 20.14315796 -0.01226807 C24.08263081 0.02590406 27.14350525 0.46379691 30.6640625 2.265625 C32.19140625 3.89453125 32.19140625 3.89453125 33.6015625 5.828125 C42.21952941 16.15607349 56.51224205 21.97569996 68.3515625 27.890625 C88.7851683 38.12480933 107.9263425 48.46703451 116.59765625 70.9609375 C127.19407481 103.79819061 117.45131657 137.09674108 103.6640625 167.265625 C103.14070313 168.43738281 102.61734375 169.60914063 102.078125 170.81640625 C100.6640625 173.265625 100.6640625 173.265625 97.6640625 174.265625 C96.66028139 171.25428167 96.52823338 169.21197764 96.50634766 166.06323242 C96.49608551 165.00170456 96.48582336 163.9401767 96.47525024 162.84648132 C96.46794891 161.69960342 96.46064758 160.55272552 96.453125 159.37109375 C96.4250562 156.94725887 96.39639174 154.52343084 96.3671875 152.09960938 C96.32592432 148.27466016 96.28903987 144.44983859 96.26269531 140.62475586 C96.23507848 136.93576625 96.18920498 133.24735891 96.140625 129.55859375 C96.13737213 128.41778854 96.13411926 127.27698334 96.13076782 126.10160828 C96.04336607 120.45128436 95.95245936 116.09642094 92.6640625 111.265625 C90.82936109 109.57394344 90.82936109 109.57394344 88.7265625 108.453125 C88.05753906 108.05480469 87.38851562 107.65648438 86.69921875 107.24609375 C81.16447958 104.57964551 75.80675117 104.69424136 69.9140625 106.265625 C66.24997727 107.73976374 63.36435486 109.88492899 60.2265625 112.265625 C52.96618482 117.7209364 46.73283159 119.91339422 37.6640625 119.265625 C37.3340625 118.935625 37.0040625 118.605625 36.6640625 118.265625 C36.90176008 112.32318548 38.54018993 108.43115285 42.6640625 104.265625 C49.81897287 99.54068419 58.40325371 98.15037264 66.6640625 96.265625 C66.6640625 93.71583509 65.84095457 92.86298443 64.4140625 90.765625 C60.86463382 85.18795137 57.72146159 79.47997381 57.6015625 72.765625 C58.6640625 70.265625 58.6640625 70.265625 61.2265625 68.890625 C62.433125 68.58125 62.433125 68.58125 63.6640625 68.265625 C66.32213209 70.57473015 67.23162256 72.5009276 68.2890625 75.828125 C71.92102572 85.28780106 79.73091425 92.66283112 88.6640625 97.265625 C91.3040625 98.255625 93.9440625 99.245625 96.6640625 100.265625 C96.3340625 87.065625 96.0040625 73.865625 95.6640625 60.265625 C93.36235326 59.11477038 92.03644478 59.12900654 89.47531128 59.10740662 C88.15857925 59.09272339 88.15857925 59.09272339 86.81524658 59.07774353 C85.84996033 59.07198807 84.88467407 59.0662326 83.89013672 59.06030273 C82.36814163 59.04545334 82.36814163 59.04545334 80.81539917 59.03030396 C77.44987347 58.99862831 74.08433363 58.97390755 70.71875 58.94921875 C68.38989894 58.92865446 66.06105166 58.90765813 63.73220825 58.88624573 C57.59359795 58.83097084 51.45495367 58.78158547 45.31628418 58.73339844 C39.05587733 58.68322292 32.79552001 58.62751627 26.53515625 58.57226562 C14.24483395 58.4646178 1.9544687 58.36318758 -10.3359375 58.265625 C-10.4053804 50.99873747 -10.45871939 43.73192122 -10.49137402 36.46476936 C-10.50704494 33.09048894 -10.52830843 29.71643513 -10.56225586 26.34228516 C-10.5985111 22.46510752 -10.61563478 18.58825328 -10.62890625 14.7109375 C-10.64439011 13.49632843 -10.65987396 12.28171936 -10.67582703 11.03030396 C-10.67616692 9.34878738 -10.67616692 9.34878738 -10.67651367 7.63330078 C-10.68317551 6.64290802 -10.68983734 5.65251526 -10.69670105 4.6321106 C-10.57764908 3.85117035 -10.45859711 3.0702301 -10.3359375 2.265625 C-6.74413322 -0.12891119 -4.14742337 -0.02431088 0 0 Z " fill="#FFFFFF" transform="translate(10.3359375,0.734375)"/>
<path d="M0 0 C1.57689857 -0.00956978 1.57689857 -0.00956978 3.18565369 -0.01933289 C4.32523026 -0.02044571 5.46480682 -0.02155853 6.63891602 -0.02270508 C7.80536148 -0.02603348 8.97180695 -0.02936188 10.17359924 -0.03279114 C12.64421188 -0.03786117 15.11483138 -0.04019944 17.58544922 -0.04003906 C21.37356805 -0.04222522 25.16139564 -0.0603795 28.94946289 -0.0793457 C31.34594627 -0.08227961 33.74243103 -0.08426442 36.13891602 -0.08520508 C37.84524452 -0.09598335 37.84524452 -0.09598335 39.58604431 -0.10697937 C41.16767113 -0.10236443 41.16767113 -0.10236443 42.78125 -0.09765625 C44.17451759 -0.09979378 44.17451759 -0.09979378 45.59593201 -0.10197449 C47.95532227 0.14526367 47.95532227 0.14526367 50.95532227 2.14526367 C51.31608582 4.4737854 51.31608582 4.4737854 51.29589844 7.42114258 C51.29567184 8.52213287 51.29544525 9.62312317 51.29521179 10.75747681 C51.27972794 11.9502121 51.26424408 13.14294739 51.24829102 14.37182617 C51.24404617 15.58977875 51.23980133 16.80773132 51.23542786 18.06259155 C51.21859057 21.96537071 51.18092821 25.86763972 51.14282227 29.77026367 C51.127782 32.41088123 51.11409246 35.05150686 51.10180664 37.69213867 C51.06867049 44.17668871 51.01842087 50.66093976 50.95532227 57.14526367 C49.68412033 57.14304306 48.4129184 57.14082245 47.10319519 57.13853455 C35.13990442 57.11828779 23.1766171 57.10328411 11.2133131 57.0934515 C5.06244888 57.08822659 -1.08840154 57.081136 -7.23925781 57.06982422 C-13.17200036 57.05898149 -19.10472962 57.05298388 -25.03748131 57.05038643 C-27.30415748 57.04853469 -29.5708329 57.04491886 -31.83750343 57.03953362 C-35.00529189 57.03230485 -38.17302497 57.03127352 -41.34082031 57.03173828 C-42.28380981 57.02814301 -43.22679932 57.02454773 -44.19836426 57.02084351 C-45.06073196 57.02221817 -45.92309967 57.02359283 -46.81159973 57.02500916 C-47.56101743 57.02408736 -48.31043512 57.02316557 -49.08256245 57.02221584 C-51.25984357 57.0746352 -51.25984357 57.0746352 -54.04467773 58.14526367 C-53.9924707 59.93770508 -53.9924707 59.93770508 -53.93920898 61.76635742 C-53.65764547 75.22622536 -54.63131301 83.87436675 -64.04467773 94.14526367 C-66.27973677 96.27941711 -68.63738197 98.21018797 -71.04467773 100.14526367 C-72.46705156 101.36782158 -73.88364048 102.59713873 -75.29467773 103.83276367 C-76.26147461 104.67387695 -76.26147461 104.67387695 -77.24780273 105.53198242 C-79.06011068 107.10352549 -79.06011068 107.10352549 -80.59155273 108.85229492 C-82.04467773 110.14526367 -82.04467773 110.14526367 -85.04467773 110.14526367 C-83.93728023 87.62818105 -74.97406466 63.90920811 -58.53686523 48.24682617 C-49.3436111 40.49452096 -39.58590897 37.3826686 -28.04467773 35.14526367 C-26.97475586 34.9312793 -25.90483398 34.71729492 -24.80249023 34.49682617 C-15.29505139 32.82758118 -5.67214541 32.53158233 3.95532227 32.14526367 C4.95749291 28.56198614 4.95749291 28.56198614 3.95532227 25.14526367 C-9.90467773 24.65026367 -9.90467773 24.65026367 -24.04467773 24.14526367 C-24.53967773 23.15526367 -24.53967773 23.15526367 -25.04467773 22.14526367 C-7.25982348 0.02981843 -7.25982348 0.02981843 0 0 Z " fill="#FFFFFF" transform="translate(231.044677734375,0.854736328125)"/>
<path d="M0 0 C0.04668087 14.04689344 0.08183673 28.09377488 0.10362434 42.1407299 C0.1140792 48.66269488 0.12826937 55.1846079 0.15087891 61.70654297 C0.17254669 67.99589679 0.18455579 74.28520052 0.18975449 80.57458878 C0.19346117 82.97886062 0.20069897 85.3831296 0.21146011 87.78738022 C0.22589441 91.14461021 0.22798133 94.50163089 0.22705078 97.85888672 C0.23424133 98.86157593 0.24143188 99.86426514 0.24884033 100.89733887 C0.246091 101.80881683 0.24334167 102.7202948 0.24050903 103.65939331 C0.24235262 104.45397886 0.24419621 105.24856441 0.24609566 106.06722832 C0 108 0 108 -2 110 C-4.3217926 110.24723816 -4.3217926 110.24723816 -7.26000977 110.24291992 C-8.35777237 110.24599655 -9.45553497 110.24907318 -10.58656311 110.25224304 C-11.77616135 110.24505753 -12.96575958 110.23787201 -14.19140625 110.23046875 C-15.40698715 110.23001053 -16.62256805 110.22955231 -17.87498474 110.2290802 C-20.44816055 110.22605496 -23.02133448 110.21816063 -25.59448242 110.20581055 C-29.54938184 110.18756053 -33.50404727 110.18530075 -37.45898438 110.18554688 C-39.95312704 110.18063169 -42.44726811 110.17480336 -44.94140625 110.16796875 C-46.13302872 110.16685593 -47.32465118 110.1657431 -48.55238342 110.16459656 C-49.64699387 110.15821671 -50.74160431 110.15183685 -51.86938477 110.14526367 C-52.83820084 110.14145187 -53.80701691 110.13764008 -54.80519104 110.13371277 C-57 110 -57 110 -58 109 C-58.48073476 102.69035621 -57.05561344 97.02709172 -55.5 90.9375 C-55.09624146 89.35618286 -55.09624146 89.35618286 -54.68432617 87.74291992 C-47.35831247 59.92153552 -35.35366614 35.48041738 -16.8125 13.5 C-16.10009155 12.65417358 -16.10009155 12.65417358 -15.37329102 11.79125977 C-5.15959863 0 -5.15959863 0 0 0 Z " fill="#FFFFFF" transform="translate(175,205)"/>
<path d="M0 0 C1 1 1 1 1.26953125 4.0234375 C0.94683014 8.78444805 -0.41276549 12.29803932 -2.3125 16.625 C-2.62123047 17.36234375 -2.92996094 18.0996875 -3.24804688 18.859375 C-4.90937907 22.76263127 -6.70080648 26.42033255 -9 30 C-7.86820312 30.19335938 -6.73640625 30.38671875 -5.5703125 30.5859375 C-4.08846798 30.84854286 -2.60670108 31.11158648 -1.125 31.375 C-0.00544922 31.56449219 -0.00544922 31.56449219 1.13671875 31.7578125 C6.7734375 32.7734375 6.7734375 32.7734375 9 35 C9.125 37.625 9.125 37.625 9 40 C5.12762969 42.05719672 2.44636487 41.96290229 -1.83203125 41.3046875 C-8.98197438 40.29983063 -15.4422361 40.81042612 -22 44 C-26.30784603 47.46500659 -29.54403954 51.53024255 -30.28466797 57.16625977 C-30.41214197 59.65405065 -30.46696748 62.13420718 -30.5 64.625 C-31.1166645 82.89017277 -36.73393661 95.73993438 -48.77734375 109.30078125 C-58.18335857 119.95409685 -66.07931609 131.61533535 -73 144 C-73.48581543 144.86625 -73.97163086 145.7325 -74.47216797 146.625 C-82.57214121 161.14461963 -89.99907038 175.92172922 -97 191 C-97.99 190.67 -98.98 190.34 -100 190 C-99.54552297 181.32869583 -98.14890069 173.2176185 -96 164.8125 C-95.69239746 163.60142578 -95.38479492 162.39035156 -95.06787109 161.14257812 C-82.97802691 114.99556472 -59.69225102 72.72733219 -28.31640625 36.9296875 C-19.2137274 26.49877517 -10.77563117 16.54760505 -8.6328125 2.44921875 C-8.42398438 1.64097656 -8.21515625 0.83273438 -8 0 C-4.69676014 -1.10107995 -3.29495231 -0.86709271 0 0 Z " fill="#FFFFFF" transform="translate(207,97)"/>
<path d="M0 0 C2.2673805 -0.00971353 4.5338574 -0.04073955 6.80102539 -0.07226562 C8.24047313 -0.07879505 9.67992735 -0.08404576 11.11938477 -0.08789062 C12.43156982 -0.09723633 13.74375488 -0.10658203 15.09570312 -0.11621094 C18.34204102 0.24023437 18.34204102 0.24023437 20.27026367 1.31323242 C21.94119879 4.31749003 21.71123563 6.98722927 21.71313477 10.40039062 C21.73053901 11.84896043 21.74812311 13.29752809 21.76586914 14.74609375 C21.77587121 17.01461182 21.77955603 19.28297465 21.77783203 21.55151367 C21.79122498 29.69174513 21.83934158 36.96131264 25.48681641 44.45288086 C26.34204102 46.24023438 26.34204102 46.24023438 26.34204102 48.24023438 C27.33204102 48.24023438 28.32204102 48.24023438 29.34204102 48.24023438 C30.50194357 43.60585942 30.51045556 39.10627451 30.55297852 34.36132812 C30.58102979 32.61847991 30.60969412 30.87564148 30.63891602 29.1328125 C30.68025893 26.39851987 30.71716884 23.66441343 30.7434082 20.92993164 C30.77099161 18.28168681 30.81683783 15.63425865 30.86547852 12.98632812 C30.86873138 12.16958115 30.87198425 11.35283417 30.87533569 10.51133728 C30.94509625 7.29261925 31.14375613 4.67318091 32.49316406 1.72680664 C35.13969599 -0.40111266 37.03046405 -0.27706562 40.40063477 -0.29101562 C41.59108398 -0.29617187 42.7815332 -0.30132812 44.00805664 -0.30664062 C45.25264648 -0.29117187 46.49723633 -0.27570313 47.77954102 -0.25976562 C49.02026367 -0.27523438 50.26098633 -0.29070312 51.53930664 -0.30664062 C52.73104492 -0.30148438 53.9227832 -0.29632813 55.15063477 -0.29101562 C56.24174561 -0.28650391 57.33285645 -0.28199219 58.45703125 -0.27734375 C62.01473923 0.36091815 63.19817292 1.37019177 65.34204102 4.24023438 C65.74694932 7.13116061 65.91428696 9.54821729 65.84204102 12.42773438 C65.82923096 13.19077881 65.8164209 13.95382324 65.80322266 14.73999023 C65.44003174 24.84575043 61.47416359 31.22455461 54.34204102 38.24023438 C53.05948235 39.33433544 51.76763394 40.41763383 50.46704102 41.49023438 C42.1854147 48.57509388 36.56772124 58.12139649 31.26025391 67.515625 C30.33881623 69.12104892 29.34666431 70.6855108 28.34204102 72.24023438 C27.68204102 72.24023438 27.02204102 72.24023438 26.34204102 72.24023438 C25.97030762 71.43505371 25.59857422 70.62987305 25.21557617 69.80029297 C16.87539508 51.84255944 9.10441796 35.48544041 -5.37988281 21.57958984 C-9.96131796 17.12209908 -14.21402164 12.21325498 -16.65795898 6.24023438 C-16.45092773 3.48632812 -16.45092773 3.48632812 -15.65795898 1.24023438 C-11.15903892 -1.00922566 -5.00593462 0.0130151 0 0 Z " fill="#FFFFFF" transform="translate(114.657958984375,0.759765625)"/>
<path d="M0 0 C1.91011859 23.20193005 1.91011859 23.20193005 -2.1328125 28.72265625 C-4.95264042 31.38931803 -7.89480842 33.67614067 -11 36 C-12.60047814 37.76078451 -14.14463386 39.57459677 -15.625 41.4375 C-16.35332031 42.35402344 -17.08164063 43.27054688 -17.83203125 44.21484375 C-18.54746094 45.13394531 -19.26289063 46.05304688 -20 47 C-20.70511719 47.88816406 -21.41023438 48.77632812 -22.13671875 49.69140625 C-38.1363162 70.34438751 -50.81774867 93.75523005 -60.19799805 118.09692383 C-60.52711182 118.94794678 -60.85622559 119.79896973 -61.1953125 120.67578125 C-61.47391113 121.41739502 -61.75250977 122.15900879 -62.03955078 122.9230957 C-63.0984247 125.21283653 -64.42539572 127.03659427 -66 129 C-66.99 128.67 -67.98 128.34 -69 128 C-69.08318117 125.91738988 -69.14014244 123.83373254 -69.1875 121.75 C-69.22230469 120.58984375 -69.25710937 119.4296875 -69.29296875 118.234375 C-68.95958721 108.0152874 -64.7947852 98.18404835 -61.0625 88.8125 C-60.34549927 87.00241455 -60.34549927 87.00241455 -59.61401367 85.15576172 C-25.51364073 -0 -25.51364073 -0 0 0 Z " fill="#FFFFFF" transform="translate(175,102)"/>
<path d="M0 0 C4.24977046 -0.11611395 8.49913337 -0.18722349 12.75 -0.25 C13.9565625 -0.28351562 15.163125 -0.31703125 16.40625 -0.3515625 C18.14648438 -0.37089844 18.14648438 -0.37089844 19.921875 -0.390625 C20.99018555 -0.41157227 22.05849609 -0.43251953 23.15917969 -0.45410156 C26.72279949 0.11553859 27.78939278 1.20448745 30 4 C31.09667969 5.79931641 31.09667969 5.79931641 31.921875 7.6015625 C32.22480469 8.25640625 32.52773437 8.91125 32.83984375 9.5859375 C33.14019531 10.25882813 33.44054687 10.93171875 33.75 11.625 C34.06582031 12.305625 34.38164063 12.98625 34.70703125 13.6875 C37 18.71019345 37 18.71019345 37 21 C31.51204294 20.00168821 26.43075016 18.18086452 21.1875 16.3125 C20.22779297 15.98572266 19.26808594 15.65894531 18.27929688 15.32226562 C11.0753854 12.75049382 5.41764395 9.41764395 0 4 C0 2.68 0 1.36 0 0 Z " fill="#FFFFFF" transform="translate(59,1)"/>
<path d="M0 0 C0.89203125 0.00902344 1.7840625 0.01804688 2.703125 0.02734375 C3.37859375 0.03894531 4.0540625 0.05054687 4.75 0.0625 C4.75 4.0625 4.75 4.0625 3.60424805 5.70996094 C3.07871338 6.23364258 2.55317871 6.75732422 2.01171875 7.296875 C1.15223633 8.15732422 1.15223633 8.15732422 0.27539062 9.03515625 C-0.33111328 9.62167969 -0.93761719 10.20820313 -1.5625 10.8125 C-2.15740234 11.41449219 -2.75230469 12.01648438 -3.36523438 12.63671875 C-7.85624823 17.0625 -7.85624823 17.0625 -11.25 17.0625 C-11.49979445 15.14841243 -11.72408014 13.23098389 -11.9375 11.3125 C-12.06511719 10.24515625 -12.19273437 9.1778125 -12.32421875 8.078125 C-12.25 5.0625 -12.25 5.0625 -11.01953125 2.734375 C-7.74420858 -0.36019035 -4.3336942 -0.05702229 0 0 Z " fill="#FFFFFF" transform="translate(202.25,0.9375)"/>
</svg>
