<?xml version='1.0' encoding='utf-8'?>
<svg xmlns="http://www.w3.org/2000/svg" width="32" height="32" viewBox="0 0 32 32" fill="none">
<rect x="1" y="1" width="30" height="30" rx="6" fill="#F3F4F6" /><path d="M2.74936 15.5326C2.63824 15.8319 2.63824 16.1612 2.74936 16.4606C3.83162 19.0848 5.66871 21.3285 8.02772 22.9074C10.3867 24.4862 13.1614 25.3291 16 25.3291C18.8386 25.3291 21.6133 24.4862 23.9723 22.9074C26.3313 21.3285 28.1684 19.0848 29.2507 16.4606C29.3618 16.1612 29.3618 15.8319 29.2507 15.5326C28.1684 12.9084 26.3313 10.6646 23.9723 9.08577C21.6133 7.50692 18.8386 6.66406 16 6.66406C13.1614 6.66406 10.3867 7.50692 8.02772 9.08577C5.66871 10.6646 3.83162 12.9084 2.74936 15.5326Z" stroke="#3D4451" stroke-width="2.33333" stroke-linecap="round" stroke-linejoin="round" />
<path d="M16 20C18.2091 20 20 18.2091 20 16C20 13.7909 18.2091 12 16 12C13.7909 12 12 13.7909 12 16C12 18.2091 13.7909 20 16 20Z" stroke="#3D4451" stroke-width="2.33333" stroke-linecap="round" stroke-linejoin="round" />
</svg>