<svg width="40" height="40" viewBox="0 0 40 40" fill="none" xmlns="http://www.w3.org/2000/svg">
<path d="M0 2C0 0.895431 0.895431 0 2 0H38C39.1046 0 40 0.895431 40 2V38C40 39.1046 39.1046 40 38 40H2C0.895431 40 0 39.1046 0 38V2Z" fill="#F3F4F6"/>
<path d="M8.737 19.6027C8.6425 19.8571 8.6425 20.137 8.737 20.3915C9.6569 22.6221 11.2184 24.5292 13.2236 25.8713C15.2287 27.2133 17.5872 27.9297 20 27.9297C22.4128 27.9297 24.7713 27.2133 26.7765 25.8713C28.7816 24.5292 30.3431 22.6221 31.2631 20.3915C31.3575 20.137 31.3575 19.8571 31.2631 19.6027C30.3431 17.3721 28.7816 15.4649 26.7765 14.1229C24.7713 12.7809 22.4128 12.0645 20 12.0645C17.5872 12.0645 15.2287 12.7809 13.2236 14.1229C11.2184 15.4649 9.6569 17.3721 8.737 19.6027Z" stroke="#364153" stroke-width="1.98333" stroke-linecap="round" stroke-linejoin="round"/>
<path d="M20 23.4C21.8777 23.4 23.4 21.8777 23.4 20C23.4 18.1223 21.8777 16.6 20 16.6C18.1223 16.6 16.6 18.1223 16.6 20C16.6 21.8777 18.1223 23.4 20 23.4Z" stroke="#364153" stroke-width="1.98333" stroke-linecap="round" stroke-linejoin="round"/>
</svg>
