<?xml version="1.0" encoding="UTF-8"?>
<svg version="1.1" xmlns="http://www.w3.org/2000/svg" width="600" height="164">
<path d="M0 0 C7.72879671 -0.09335842 15.45745725 -0.16409439 23.18667889 -0.20724869 C26.77708271 -0.22797799 30.36709615 -0.25602042 33.95727539 -0.30175781 C37.43271947 -0.3457481 40.90779206 -0.36924676 44.38349342 -0.37950897 C46.3313639 -0.39031783 48.27908834 -0.42145527 50.22673035 -0.45318604 C64.23061672 -0.45665319 76.61949823 3.35298721 87.09765625 12.9140625 C96.0111776 22.41424874 97.48622114 32.88578363 97.2734375 45.4375 C96.8718456 55.12341941 92.85543075 63.16047512 86 70 C84.515 70.495 84.515 70.495 83 71 C83 71.66 83 72.32 83 73 C83.99 73.2784375 83.99 73.2784375 85 73.5625 C92.4127843 77.11445914 98.75163958 83.62839414 101.93359375 91.23046875 C107.22912283 106.35693219 106.37482234 122.53348536 99.875 137.0625 C93.85378393 148.37020041 83.35812812 158.21666079 71.0949707 162.20214844 C63.6148725 164.38352185 56.46403497 164.5129051 48.73046875 164.390625 C47.31416127 164.38314054 45.89784326 164.37745808 44.48152161 164.37347412 C40.80050746 164.35839056 37.12015099 164.31926494 33.43939209 164.2746582 C29.66476329 164.23332604 25.8900255 164.21538317 22.11523438 164.1953125 C14.74319366 164.15274801 7.37168988 164.08471496 0 164 C-1.08708111 160.47432574 -1.12578717 157.21174126 -1.12698364 153.53414917 C-1.12854363 152.88694133 -1.13010362 152.23973349 -1.13171089 151.57291329 C-1.13569625 149.40649579 -1.13254082 147.24014848 -1.12939453 145.07373047 C-1.13074964 143.51975463 -1.13253019 141.96577911 -1.13470459 140.4118042 C-1.13926515 136.19302506 -1.13749521 131.97427035 -1.1343255 127.75549078 C-1.13179571 123.34416481 -1.13414109 118.93284095 -1.13571167 114.52151489 C-1.13753117 107.11541365 -1.1351324 99.70932238 -1.13037109 92.30322266 C-1.12492488 83.73262512 -1.12669462 75.16205135 -1.1321975 66.59145439 C-1.13673009 59.23853504 -1.13737858 51.88562286 -1.13475883 44.53270257 C-1.13319738 40.13851603 -1.13299878 35.74434069 -1.13629532 31.35015488 C-1.13917628 27.22158185 -1.13719418 23.0930396 -1.13140106 18.96446991 C-1.13007485 17.44627814 -1.13046525 15.92808379 -1.13266373 14.40989304 C-1.13538055 12.34385447 -1.1319876 10.27791568 -1.12698364 8.21188354 C-1.12660662 7.05377607 -1.12622959 5.8956686 -1.12584114 4.70246696 C-1 2 -1 2 0 0 Z M32 28 C30.92774837 35.08215581 30.89897741 42.28859745 30.875 49.4375 C30.87040771 50.20634521 30.86581543 50.97519043 30.86108398 51.76733398 C30.87170371 55.64523184 31.05124776 59.21252081 32 63 C41.60582066 64.13009655 50.65894897 64.81619054 59.4375 60.1875 C62.90648956 57.22616745 66.69938323 53.83851605 67.203125 49.08203125 C67.32912635 42.98146579 66.67725802 38.14886173 62.55859375 33.3046875 C55.03975899 26.08241931 45.89712913 26.78324837 36.0625 26.83203125 C33.12611299 26.65144661 33.12611299 26.65144661 32 28 Z M32 91 C30.84340844 95.59707816 30.85526703 100.02452134 30.8671875 104.73046875 C30.86623077 105.56210037 30.86527405 106.39373199 30.86428833 107.25056458 C30.86360996 109.00127234 30.86544024 110.75198266 30.86962891 112.50268555 C30.87500239 115.18869622 30.86966189 117.87454123 30.86328125 120.56054688 C30.86394169 122.2630212 30.86522216 123.96549543 30.8671875 125.66796875 C30.86516327 126.47316452 30.86313904 127.27836029 30.86105347 128.10795593 C30.77924533 132.18534514 30.77924533 132.18534514 32 136 C41.8934471 137.77281422 53.8477976 137.97435502 63 133.25 C68.12147714 129.40889214 71.66206915 125.44639411 73 119 C73.7546492 111.54638788 73.08705992 105.39771797 69 99 C62.74887965 92.57993045 54.66523452 91.11588833 46.03417969 90.96582031 C41.35544372 90.92154205 36.67856433 90.94833487 32 91 Z " fill="#000000" transform="translate(392,0)"/>
<path d="M0 0 C70.23891626 0 70.23891626 0 85 13 C85.60457031 13.52335938 86.20914063 14.04671875 86.83203125 14.5859375 C96.03458534 23.12687005 101.45259132 34.81841035 102.1262207 47.34765625 C102.57802388 62.79215332 102.83765033 79.48683102 91.53515625 91.56542969 C89.36233322 93.71871294 87.17637292 95.83707287 84.87524414 97.85351562 C83.1031245 99.40714653 83.1031245 99.40714653 81 102 C81.36799256 105.36458969 82.41357678 108.4583951 83.51879883 111.64746094 C83.97981743 112.9847525 83.97981743 112.9847525 84.45014954 114.34906006 C84.7824205 115.30121399 85.11469147 116.25336792 85.45703125 117.234375 C85.80126633 118.22697327 86.1455014 119.21957153 86.50016785 120.24224854 C87.22901902 122.34078132 87.95955332 124.43873019 88.69165039 126.53613281 C89.8030099 129.72278857 90.9067346 132.91201581 92.00976562 136.1015625 C92.7208919 138.14599418 93.43246619 140.1902701 94.14453125 142.234375 C94.47072952 143.17843201 94.7969278 144.12248901 95.13301086 145.09515381 C96.94329991 150.26162062 98.92887133 155.25969533 101.26054382 160.2144165 C102 162 102 162 102 164 C91.44 164 80.88 164 70 164 C68.38108823 159.16650267 66.76320627 154.33268225 65.14770508 149.49804688 C64.60041629 147.86113986 64.05258457 146.22441424 63.50415039 144.58789062 C59.87660103 133.76176714 56.37147275 122.9088098 53 112 C46.07 112 39.14 112 32 112 C32.10828125 115.6196875 32.10828125 115.6196875 32.21875 119.3125 C32.28880711 121.7089686 32.35806216 124.10545917 32.42724609 126.50195312 C32.47491512 128.13869636 32.52338807 129.77541643 32.57275391 131.41210938 C32.64449025 133.7955129 32.71311088 136.17899121 32.78125 138.5625 C32.81406067 139.61981323 32.81406067 139.61981323 32.84753418 140.69848633 C33.06383483 148.47225337 33 156.21172903 33 164 C22.11 164 11.22 164 0 164 C0 109.88 0 55.76 0 0 Z M32 28 C31.90653085 29.65738443 31.88255023 31.31874644 31.88647461 32.97875977 C31.88655014 34.03978409 31.88662567 35.10080841 31.88670349 36.19398499 C31.89186478 37.348134 31.89702606 38.50228302 31.90234375 39.69140625 C31.9037587 40.86638168 31.90517365 42.04135712 31.90663147 43.25193787 C31.91225008 47.02215064 31.92480574 50.79230504 31.9375 54.5625 C31.9425126 57.11132727 31.94707592 59.66015547 31.95117188 62.20898438 C31.96222556 68.47267633 31.97898179 74.73633399 32 81 C34.71631164 81.04237763 37.43195354 81.07327505 40.1484375 81.09765625 C41.29397095 81.11729431 41.29397095 81.11729431 42.46264648 81.1373291 C50.66531611 81.19248422 56.778839 79.32212186 62.9375 73.75 C69.1145579 66.8153784 69.61930243 59.83799756 69.41015625 50.69921875 C68.62918121 43.65556768 65.83183789 38.40006544 60.6875 33.5625 C55.20347125 29.35133693 37.78083579 22.21916421 32 28 Z " fill="#000000" transform="translate(158,0)"/>
<path d="M0 0 C27.39 0 54.78 0 83 0 C83 8.91 83 17.82 83 27 C82 28 82 28 80.01951599 28.12025452 C79.15125687 28.11803391 78.28299774 28.11581329 77.38842773 28.11352539 C76.40748642 28.11344986 75.4265451 28.11337433 74.4158783 28.11329651 C73.3492244 28.10813522 72.2825705 28.10297394 71.18359375 28.09765625 C69.55430687 28.09553383 69.55430687 28.09553383 67.8921051 28.09336853 C64.40720925 28.08775048 60.92237658 28.07519492 57.4375 28.0625 C55.08138113 28.05748733 52.72526126 28.05292402 50.36914062 28.04882812 C44.57938289 28.03862411 38.78976255 28.01905224 33 28 C33 39.88 33 51.76 33 64 C35.73152344 63.98839844 38.46304688 63.97679687 41.27734375 63.96484375 C43.91170129 63.95705358 46.54605757 63.95097659 49.18041992 63.94506836 C51.01668875 63.94002769 52.85295354 63.93319523 54.68920898 63.92456055 C57.32276401 63.91248328 59.95626616 63.90676919 62.58984375 63.90234375 C63.41588608 63.89718246 64.24192841 63.89202118 65.09300232 63.88670349 C67.06236368 63.88650795 69.03161614 63.93795848 71 64 C72.77449594 65.77449594 72.13030072 68.35017261 72.1328125 70.75 C72.13410156 71.9153125 72.13539063 73.080625 72.13671875 74.28125 C72.13285156 75.5084375 72.12898437 76.735625 72.125 78 C72.12886719 79.2271875 72.13273438 80.454375 72.13671875 81.71875 C72.13542969 82.8840625 72.13414062 84.049375 72.1328125 85.25 C72.13168457 86.32765625 72.13055664 87.4053125 72.12939453 88.515625 C72 91 72 91 71 92 C68.18859849 92.0886126 65.40120576 92.11529584 62.58984375 92.09765625 C61.84383911 92.09664917 61.09783447 92.09564209 60.32922363 92.09460449 C57.53196687 92.08935689 54.73473196 92.07539573 51.9375 92.0625 C45.688125 92.041875 39.43875 92.02125 33 92 C32.67 106.52 32.34 121.04 32 136 C35.74214844 135.98839844 39.48429688 135.97679687 43.33984375 135.96484375 C46.94718338 135.95705453 50.55452209 135.950977 54.16186523 135.94506836 C56.67716895 135.94002637 59.19246972 135.93319297 61.70776367 135.92456055 C65.31429775 135.91248906 68.92079323 135.90677051 72.52734375 135.90234375 C74.22575661 135.89460182 74.22575661 135.89460182 75.95848083 135.88670349 C77.51998619 135.88659019 77.51998619 135.88659019 79.11303711 135.88647461 C80.03459091 135.884254 80.95614471 135.88203339 81.90562439 135.87974548 C84 136 84 136 85 137 C85 145.91 85 154.82 85 164 C56.95 164 28.9 164 0 164 C0 109.88 0 55.76 0 0 Z " fill="#000000" transform="translate(515,0)"/>
<path d="M0 0 C11.22 0 22.44 0 34 0 C34.02885175 8.39585882 34.05172297 16.79160839 34.0625 25.1875 C34.06335602 25.84930897 34.06421204 26.51111794 34.06509399 27.19298172 C34.09915707 57.2763016 33.81185574 87.35606394 33.5 117.4375 C33.48804218 118.59131039 33.47608437 119.74512077 33.46376419 120.93389511 C33.31449704 135.28932291 33.15931053 149.64468035 33 164 C22.11 164 11.22 164 0 164 C0 109.88 0 55.76 0 0 Z " fill="#000000" transform="translate(333,0)"/>
<path d="M0 0 C11.22 0 22.44 0 34 0 C34 54.12 34 108.24 34 164 C22.78 164 11.56 164 0 164 C0 109.88 0 55.76 0 0 Z " fill="#000000" transform="translate(275,0)"/>
<path d="M0 0 C0.71220703 -0.020625 1.42441406 -0.04125 2.15820312 -0.0625 C8.69492882 -0.1108754 11.72556643 1.92948428 16.3828125 6.12890625 C20.51631942 9.75159309 25.10968322 11.8847606 30.0625 14.1875 C41.74487022 19.85293076 51.38609617 25.45971784 56.30078125 38.1171875 C60.75297837 53.84697644 56.98947176 71.29159517 49.97265625 85.75390625 C49.10232746 87.28704771 48.15710622 88.777635 47.1875 90.25 C46.5275 90.25 45.8675 90.25 45.1875 90.25 C45.157771 88.96367676 45.157771 88.96367676 45.12744141 87.65136719 C45.04920479 84.46052358 44.96250657 81.2700526 44.87011719 78.07958984 C44.83190662 76.70044757 44.79703998 75.32120833 44.765625 73.94189453 C44.71980376 71.95583033 44.66083737 69.97008321 44.6015625 67.984375 C44.5701416 66.79038086 44.5387207 65.59638672 44.50634766 64.36621094 C44.2019303 61.39103244 43.92017826 59.66405275 42.1875 57.25 C37.22630405 55.19241266 37.22630405 55.19241266 32.09375 55.91796875 C30.05715008 56.94018525 28.12492503 58.05121826 26.1875 59.25 C21.88156549 61.66132333 19.1457952 62.60416394 14.1875 62.25 C14.4723124 58.92718869 15.14487419 57.30594638 17.1875 54.625 C20.94452905 51.65068534 24.60644049 50.47760418 29.1875 49.25 C28.88714844 48.73050781 28.58679687 48.21101563 28.27734375 47.67578125 C25.13261149 41.90866209 25.13261149 41.90866209 25.4375 38.25 C25.685 37.59 25.9325 36.93 26.1875 36.25 C28.08203125 36.51953125 28.08203125 36.51953125 30.1875 37.25 C31.13671875 38.88671875 31.13671875 38.88671875 31.875 40.9375 C34.50079494 46.80072084 39.62108407 49.46679203 45.1875 52.25 C44.8575 45.65 44.5275 39.05 44.1875 32.25 C26.3675 31.92 8.5475 31.59 -9.8125 31.25 C-9.8125 21.35 -9.8125 11.45 -9.8125 1.25 C-6.69863918 -0.30693041 -3.41505068 0.02432805 0 0 Z " fill="#000000" transform="translate(9.8125,-0.25)"/>
<path d="M0 0 C1.20591797 -0.020625 2.41183594 -0.04125 3.65429688 -0.0625 C4.80865234 -0.06765625 5.96300781 -0.0728125 7.15234375 -0.078125 C8.21316162 -0.0874707 9.27397949 -0.09681641 10.36694336 -0.10644531 C13.0625 0.25 13.0625 0.25 14.91137695 1.55761719 C16.82445944 4.37023389 16.41060051 7.4758955 16.3125 10.75 C16.30734375 11.40742188 16.3021875 12.06484375 16.296875 12.7421875 C16.2065354 18.63684638 15.59931853 24.34499618 15.0625 30.25 C-2.7575 30.25 -20.5775 30.25 -38.9375 30.25 C-38.9375 34.21 -38.9375 38.17 -38.9375 42.25 C-41.90266031 48.62958733 -45.13711048 51.45743762 -50.9375 55.25 C-51.2675 55.91 -51.5975 56.57 -51.9375 57.25 C-52.9275 57.25 -53.9175 57.25 -54.9375 57.25 C-54.32873251 45.27757274 -49.98395432 33.79110565 -41.125 25.5625 C-34.59227209 19.70324919 -27.41593498 18.61521094 -19 17.5625 C-18.02998047 17.43294922 -17.05996094 17.30339844 -16.06054688 17.16992188 C-13.68722877 16.85425888 -11.31310559 16.54786857 -8.9375 16.25 C-8.9375 15.59 -8.9375 14.93 -8.9375 14.25 C-13.8875 13.92 -18.8375 13.59 -23.9375 13.25 C-22.26172108 9.89844216 -20.86668995 7.80563187 -18.4375 5.0625 C-17.8290625 4.36769531 -17.220625 3.67289062 -16.59375 2.95703125 C-12.34200854 -1.42507021 -5.69425975 0.02426962 0 0 Z " fill="#000000" transform="translate(129.9375,-0.25)"/>
<path d="M0 0 C0.02312916 7.28421548 0.04091801 14.5684231 0.05181217 21.85266781 C0.05703975 25.23471813 0.06413511 28.6167434 0.07543945 31.9987793 C0.08834267 35.88329777 0.09322924 39.76780597 0.09765625 43.65234375 C0.10281754 44.87211411 0.10797882 46.09188446 0.11329651 47.34861755 C0.11340981 49.03024742 0.11340981 49.03024742 0.11352539 50.74584961 C0.115746 51.73846298 0.11796661 52.73107635 0.12025452 53.75376892 C0 56 0 56 -1 57 C-3.0605531 57.09993532 -5.1245259 57.13080906 -7.1875 57.1328125 C-8.44304687 57.13410156 -9.69859375 57.13539063 -10.9921875 57.13671875 C-11.64928711 57.13462402 -12.30638672 57.1325293 -12.98339844 57.13037109 C-14.99161335 57.12502234 -16.99960459 57.13031691 -19.0078125 57.13671875 C-20.26335937 57.13542969 -21.51890625 57.13414062 -22.8125 57.1328125 C-23.97394531 57.13168457 -25.13539062 57.13055664 -26.33203125 57.12939453 C-29 57 -29 57 -30 56 C-29.32794984 36.84657038 -19.48017484 18.08534203 -7 4 C-2.47194719 0 -2.47194719 0 0 0 Z " fill="#000000" transform="translate(90,106)"/>
<path d="M0 0 C1.65 0 3.3 0 5 0 C5.59720137 5.82271337 3.528243 9.9209404 1 15 C1.56589844 15.10957031 2.13179687 15.21914062 2.71484375 15.33203125 C3.44832031 15.49058594 4.18179688 15.64914063 4.9375 15.8125 C6.03384766 16.03873047 6.03384766 16.03873047 7.15234375 16.26953125 C7.76207031 16.51058594 8.37179688 16.75164062 9 17 C9.495 18.485 9.495 18.485 10 20 C6.82874045 21.88224874 4.71632238 22.15706714 1.0625 21.9375 C-3.15157946 21.84426815 -5.65921587 22.19805202 -9 25 C-10.27315128 27.54630256 -10.30529544 29.95984827 -10.54296875 32.76293945 C-11.53546562 43.78691114 -14.23771932 49.86706481 -21.5625 58.25 C-31.76998345 69.93846258 -38.98606373 84.78284363 -45 99 C-45.66 98.67 -46.32 98.34 -47 98 C-45.5059381 66.62470005 -26.58415185 36.58400567 -6.27734375 13.83203125 C-2.83710663 9.55386331 -0.79923463 5.43479549 0 0 Z " fill="#000000" transform="translate(102,50)"/>
<path d="M0 0 C1.10601562 -0.00580078 1.10601562 -0.00580078 2.234375 -0.01171875 C7.7466804 -0.0016598 7.7466804 -0.0016598 10 1.125 C10.04898438 2.36636719 10.09796875 3.60773438 10.1484375 4.88671875 C10.22349799 6.52866694 10.29904439 8.17059297 10.375 9.8125 C10.4059375 10.62912109 10.436875 11.44574219 10.46875 12.28710938 C10.67955924 16.62626633 11.01738759 20.16783457 13 24.125 C13.33 24.125 13.66 24.125 14 24.125 C14.01981934 23.46902832 14.03963867 22.81305664 14.06005859 22.13720703 C14.15512507 19.17438931 14.26487752 16.21229468 14.375 13.25 C14.4059375 12.21746094 14.436875 11.18492188 14.46875 10.12109375 C14.50742188 9.13496094 14.54609375 8.14882812 14.5859375 7.1328125 C14.6173584 6.22160645 14.6487793 5.31040039 14.68115234 4.37158203 C15 2.125 15 2.125 17 0.125 C20.1875 -0.140625 20.1875 -0.140625 24 -0.125 C25.258125 -0.13015625 26.51625 -0.1353125 27.8125 -0.140625 C31 0.125 31 0.125 33 2.125 C33.88292534 7.74081585 33.4672979 12.78400951 30.32421875 17.5703125 C28.92237611 19.21613365 27.45844725 20.42859229 25.75 21.75 C21.60839282 25.00603674 19.21961296 29.29209643 16.66503906 33.80712891 C15.8239644 35.2745448 14.91717459 36.70390649 14 38.125 C13.34 38.125 12.68 38.125 12 38.125 C11.49210937 37.0628125 10.98421875 36.000625 10.4609375 34.90625 C6.86963459 27.49491551 3.4222643 20.39724087 -2 14.125 C-2.80824219 13.17367188 -2.80824219 13.17367188 -3.6328125 12.203125 C-4.64733958 11.01705953 -5.66965623 9.83756647 -6.703125 8.66796875 C-8.9309546 6.01738835 -10 4.65268186 -10 1.125 C-6.84150315 -0.45424842 -3.4634872 -0.01816514 0 0 Z " fill="#000000" transform="translate(60,-0.125)"/>
<path d="M0 0 C1.53307985 11.66844106 1.53307985 11.66844106 -1.875 16.8515625 C-3.59902473 18.63485058 -5.35674362 20.38596417 -7.140625 22.109375 C-19.34247717 33.94699278 -26.26987252 51.72778764 -33 67 C-33.99 66.67 -34.98 66.34 -36 66 C-36.6959944 47.03415266 -23.05165196 22.02226226 -10.95703125 7.95703125 C-3 0 -3 0 0 0 Z " fill="#000000" transform="translate(90,52)"/>
<path d="M0 0 C1.91635217 -0.05423638 3.83314925 -0.09289963 5.75 -0.125 C7.35101563 -0.15980469 7.35101563 -0.15980469 8.984375 -0.1953125 C11.97568892 -0.00157455 13.54527119 0.33011645 16 2 C19.18412162 7.05067568 19.18412162 7.05067568 18.57421875 10.1953125 C18.28998047 11.08863281 18.28998047 11.08863281 18 12 C15.55847449 11.07204012 13.12215032 10.13319062 10.6875 9.1875 C9.99720703 8.92646484 9.30691406 8.66542969 8.59570312 8.39648438 C1.90267993 5.7774753 1.90267993 5.7774753 0 3 C0 2.01 0 1.02 0 0 Z " fill="#000000" transform="translate(30,0)"/>
<path d="M0 0 C-1.4317521 5.01113235 -3.98445693 6.94469549 -8 10 C-9 9 -9 9 -9.0625 5.4375 C-9.041875 4.303125 -9.02125 3.16875 -9 2 C-5.86501708 0.14223235 -3.62528568 -0.20140476 0 0 Z " fill="#000000" transform="translate(107,0)"/>
</svg>
